<svg width="103" height="75" viewBox="0 0 103 75" fill="none" xmlns="http://www.w3.org/2000/svg">
<circle cx="52.3248" cy="37.3248" r="37.3248" fill="#26998D"/>
<path d="M28.0637 25.2134L34.7107 45.11L40.56 34.7723L28.0637 25.2134Z" fill="white"/>
<path d="M34.3115 43.8355L36.2391 49.6416C41.4902 49.3584 46.8078 49.2168 52.1918 49.2168C57.8418 49.2168 63.3587 49.3584 68.8092 49.6416L70.5374 43.8355C64.5552 43.4106 58.44 43.1982 52.2583 43.1982C46.0766 43.269 40.0944 43.4814 34.3115 43.8355Z" fill="white"/>
<path d="M76.5861 25.2841L69.9391 45.464L64.0898 34.7722L76.5861 25.2841Z" fill="white"/>
<path d="M55.9143 29.1785L52.2584 33.1437L48.5361 29.1785L52.2584 25.2134L55.9143 29.1785Z" fill="white"/>
<path d="M47.0561 30.8512L43.3452 34.8087L47.0603 38.7618L50.7713 34.8042L47.0561 30.8512Z" fill="white"/>
<path d="M57.6099 30.814L53.8989 34.7715L57.6141 38.7246L61.325 34.7671L57.6099 30.814Z" fill="white"/>
</svg>
