<svg width="162" height="102" viewBox="0 0 162 102" fill="none" xmlns="http://www.w3.org/2000/svg">
<g clip-path="url(#clip0)">
<path d="M10.1729 64.1864C9.48667 64.6708 8.55819 64.8726 8.07376 64.8726L11.3033 70.2417H9.9711L6.74159 64.8726H1.21106V70.2417H0V57.5255H7.5086C8.8004 57.5255 9.16372 57.6466 9.93073 58.0503C10.9803 58.6155 11.5858 60.1091 11.5858 61.1991C11.5858 62.2487 11.0207 63.5405 10.1729 64.1864ZM9.36556 59.0999C8.92151 58.8173 8.47745 58.6962 6.9838 58.6962H1.21106V63.7019H6.9838C8.31597 63.7019 8.92151 63.6212 9.4463 63.2579C10.0922 62.7735 10.4152 61.9257 10.4152 61.1587C10.4152 60.311 10.0922 59.544 9.36556 59.0999Z" fill="#0F0F0F"/>
<path d="M23.8984 70.2417V57.5255H34.3943V58.7366H25.0288V63.0964H30.1556V64.2671H25.0288V69.071H34.798V70.2417H23.8984Z" fill="#0F0F0F"/>
<path d="M51.8335 70.5243C50.7032 70.5243 49.6132 70.3628 48.604 69.9591C47.3122 69.5151 46.5856 68.8692 45.6167 67.9003L46.4241 67.0526C48.0792 68.7077 49.6536 69.3132 51.9546 69.3132C53.6501 69.3132 56.8392 68.8692 56.8392 66.5682C56.8392 64.913 55.1437 64.2671 53.973 64.146C53.2868 64.0653 51.5913 64.1057 50.6224 64.0653C48.6847 64.0249 46.5452 63.2579 46.5452 60.9973C46.5452 59.0999 48.1599 57.9696 49.8151 57.4852C50.5821 57.243 51.4298 57.1622 52.2372 57.1622C54.2153 57.1622 55.7493 57.8081 57.3237 58.9788L56.597 59.8669C55.063 58.8981 53.9327 58.3329 52.0353 58.3329C51.4702 58.3329 50.9454 58.3733 50.3802 58.4944C49.1692 58.777 47.7159 59.544 47.7159 60.9569C47.7159 62.5313 49.371 62.8542 50.6224 62.8946C51.6317 62.935 53.1657 62.935 54.0941 63.0157C56.2337 63.1772 58.0503 64.3882 58.0503 66.5682C58.0099 69.7169 54.296 70.5243 51.8335 70.5243Z" fill="#0F0F0F"/>
<path d="M75.7322 70.5243C71.9375 70.5243 68.8291 67.7388 68.8291 63.8634C68.8291 60.0687 71.8971 57.2429 75.6514 57.2429C79.4461 57.2429 82.5545 60.0284 82.5545 63.8634C82.5545 67.7388 79.4865 70.5243 75.7322 70.5243ZM75.7322 58.4136C72.6641 58.4136 69.9998 60.6743 69.9998 63.823C69.9998 67.0525 72.5027 69.3536 75.6918 69.3536C78.8002 69.3536 81.3838 67.1333 81.3838 63.9441C81.3838 60.755 78.8406 58.4136 75.7322 58.4136Z" fill="#0F0F0F"/>
<path d="M104.677 64.1864C103.99 64.6708 103.062 64.8726 102.577 64.8726L105.807 70.2417H104.475L101.286 64.8726H95.755V70.2417H94.5439V57.5255H102.053C103.344 57.5255 103.708 57.6466 104.475 58.0503C105.524 58.6155 106.13 60.1091 106.13 61.1991C106.089 62.2487 105.565 63.5405 104.677 64.1864ZM103.869 59.0999C103.425 58.8173 102.981 58.6962 101.487 58.6962H95.7146V63.7019H101.487C102.82 63.7019 103.425 63.6212 103.95 63.2579C104.596 62.7735 104.919 61.9257 104.919 61.1587C104.919 60.311 104.596 59.544 103.869 59.0999Z" fill="#0F0F0F"/>
<path d="M123.246 58.6558V70.2417H122.076V58.6558H117.191V57.5255H128.05V58.6558H123.246Z" fill="#0F0F0F"/>
<path d="M144.803 70.5243C143.673 70.5243 142.623 70.3628 141.574 69.9591C140.282 69.5151 139.555 68.8692 138.586 67.9003L139.394 67.0526C141.049 68.7077 142.623 69.3132 144.924 69.3132C146.62 69.3132 149.809 68.8692 149.809 66.5682C149.809 64.913 148.113 64.2671 146.943 64.146C146.257 64.0653 144.561 64.1057 143.592 64.0653C141.654 64.0249 139.515 63.2579 139.515 60.9973C139.515 59.0999 141.13 57.9696 142.785 57.4852C143.552 57.243 144.4 57.1622 145.207 57.1622C147.185 57.1622 148.719 57.8081 150.253 58.9788L149.526 59.8669C147.992 58.8981 146.862 58.3329 144.965 58.3329C144.4 58.3329 143.875 58.3733 143.31 58.4944C142.099 58.777 140.645 59.544 140.645 60.9569C140.645 62.5313 142.3 62.8542 143.552 62.8946C144.561 62.935 146.055 62.935 147.024 63.0157C149.163 63.1772 150.98 64.3882 150.98 66.5682C150.939 69.7169 147.225 70.5243 144.803 70.5243Z" fill="#0F0F0F"/>
<path d="M63.6211 0L66.8506 9.12335L69.7572 4.35983L63.6211 0Z" fill="#0F0F0F"/>
<path d="M66.6491 8.55822L67.5776 11.2226C70.1612 11.1015 72.7448 11.0207 75.4092 11.0207C78.1542 11.0207 80.859 11.1015 83.5233 11.2226L84.371 8.55822C81.4645 8.35637 78.4772 8.27563 75.4092 8.27563C72.4219 8.27563 69.5153 8.39674 66.6491 8.55822ZM28.7832 18.6504C38.5525 14.8961 51.2686 12.1914 65.4381 11.3437L64.5096 8.71969C49.4117 9.93076 36.6148 13.6043 28.7832 18.6504ZM86.4702 8.71969L85.6628 11.3437C99.7919 12.2318 112.427 14.8961 122.156 18.6504C114.446 13.6043 101.649 9.93076 86.4702 8.71969Z" fill="#0F0F0F"/>
<path d="M87.3582 0.0402832L84.1287 9.28474L81.2222 4.40011L87.3582 0.0402832Z" fill="#0F0F0F"/>
<path d="M77.266 1.8166L75.4494 3.63319L73.6328 1.8166L75.4494 0L77.266 1.8166Z" fill="#0F0F0F"/>
<path d="M74.7225 4.40021L72.906 6.21681L71.0894 4.40021L72.906 2.58362L74.7225 4.40021Z" fill="#0F0F0F"/>
<path d="M79.8497 4.40021L78.0734 6.21681L76.2568 4.40021L78.0734 2.58362L79.8497 4.40021Z" fill="#0F0F0F"/>
<path d="M12.8776 39.6825H3.43132V48.927H0.242188V27.1682H12.8776C16.7127 27.1682 19.2155 29.4692 19.2155 33.385C19.2155 37.22 16.7127 39.6825 12.8776 39.6825ZM12.8776 30.317H3.43132V36.453H12.8776C14.9364 36.453 16.0668 35.4438 16.0668 33.3446C16.0668 31.2051 14.9768 30.317 12.8776 30.317Z" fill="#0F0F0F"/>
<path d="M42.9526 48.8867L39.8442 41.701H30.0749L26.8454 48.8867H23.4141L33.3044 27.0875H36.8165L46.5454 48.8867H42.9526ZM34.9595 30.9629L31.5282 38.5523H38.4313L34.9595 30.9629Z" fill="#0F0F0F"/>
<path d="M53.4482 48.8867V26.9664H56.6374V45.7379H69.8783V48.8867H53.4482Z" fill="#0F0F0F"/>
<path d="M95.6742 48.8867L92.5658 41.701H82.7966L79.5671 48.8867H76.1357L86.0261 27.0875H89.5382L99.2671 48.8867H95.6742ZM87.6812 30.9629L84.2499 38.5523H91.1529L87.6812 30.9629Z" fill="#0F0F0F"/>
<path d="M115.818 49.4114C109.117 49.4114 103.586 44.9305 103.586 37.9467C103.586 31.3665 108.673 26.603 115.172 26.603C119.209 26.603 122.802 28.2985 125.668 31.084L123.327 33.1024C120.985 31.1647 118.483 29.7922 115.374 29.7922C110.611 29.7922 106.695 33.1024 106.695 38.0274C106.695 43.3157 111.135 46.2223 116.02 46.2223C119.451 46.2223 121.551 45.0919 123.932 42.7102L126.031 44.9708C123.367 48.0792 119.815 49.4114 115.818 49.4114Z" fill="#0F0F0F"/>
<path d="M132.248 48.8866V27.1278H150.131V30.3169H135.397V36.0089H142.825V39.1577H135.397V45.7378H150.697V48.8866H132.248Z" fill="#0F0F0F"/>
<path d="M158.529 56.8394C160.426 56.8394 161.96 58.3734 161.96 60.2707C161.96 62.168 160.426 63.7021 158.529 63.7021C156.631 63.7021 155.097 62.168 155.097 60.2707C155.097 58.3734 156.631 56.8394 158.529 56.8394ZM158.529 63.2176C160.143 63.2176 161.475 61.8855 161.475 60.2707C161.475 58.656 160.143 57.3238 158.529 57.3238C156.914 57.3238 155.582 58.656 155.582 60.2707C155.582 61.9258 156.914 63.2176 158.529 63.2176ZM157.802 62.2488H157.317V58.2926H158.851C159.74 58.2926 160.103 58.6963 160.103 59.3826C160.103 60.1092 159.659 60.4322 159.094 60.5129L160.264 62.2488H159.699L158.529 60.5129H157.802V62.2488ZM157.802 60.0689H158.448C159.013 60.0689 159.578 60.0285 159.578 59.3826C159.578 58.8578 159.134 58.7367 158.69 58.7367H157.802V60.0689Z" fill="#0F0F0F"/>
<path d="M8.51795 100.195C8.11426 100.559 6.82246 101.81 4.60218 101.81C2.70484 101.81 0.282715 100.478 0.282715 97.6117C0.282715 94.8666 2.58374 93.4133 4.68291 93.4133C6.98394 93.4133 7.99316 94.5033 8.47758 94.9877L7.99316 95.5125C7.6702 95.1896 6.74172 94.14 4.72328 94.14C2.74521 94.14 1.04972 95.4318 1.04972 97.6117C1.04972 99.509 2.58374 101.083 4.64255 101.083C6.53988 101.083 7.67021 99.9934 8.07389 99.6301L8.51795 100.195Z" fill="#0F0F0F"/>
<path d="M19.7404 101.689H13.8062V93.6152H14.5328V100.922H19.7807V101.689H19.7404Z" fill="#0F0F0F"/>
<path d="M31.7299 101.689H24.8672V93.6152H31.4877V94.3419H25.5938V97.1273H28.783V97.854H25.5938V100.922H31.7299V101.689Z" fill="#0F0F0F"/>
<path d="M40.7324 101.689H40.0058L36.1304 93.6152H36.9377L40.3691 100.761L43.8004 93.6152H44.6078L40.7324 101.689Z" fill="#0F0F0F"/>
<path d="M56.2338 101.689H49.3711V93.6152H55.9916V94.3419H50.0977V97.1273H53.2869V97.854H50.0977V100.922H56.2338V101.689Z" fill="#0F0F0F"/>
<path d="M68.7885 101.689H67.9408L65.9223 98.2576H62.4102V101.689H61.6836V93.6152H66.6086C68.4252 93.6152 68.95 95.0685 68.95 95.8759C68.95 97.7732 67.4563 98.1769 66.7297 98.2173L68.7885 101.689ZM65.9627 97.4906C66.9719 97.4906 68.2233 97.3695 68.2233 95.8759C68.2233 94.5841 67.1334 94.3419 66.6086 94.3419H62.4102V97.4906H65.9627Z" fill="#0F0F0F"/>
<path d="M85.2588 101.689H84.5321L80.6567 93.6152H81.4641L84.8955 100.761L88.3268 93.6152H89.1342L85.2588 101.689Z" fill="#0F0F0F"/>
<path d="M100.72 101.689H93.8574V93.6152H100.478V94.3419H94.5841V97.1273H97.7732V97.854H94.5841V100.922H100.72V101.689Z" fill="#0F0F0F"/>
<path d="M113.759 101.689H113.033L107.381 94.7052V101.649H106.654V93.5748H107.381L112.992 100.559H113.033V93.5748H113.759V101.689Z" fill="#0F0F0F"/>
<path d="M123.125 101.689H122.398V94.3822H119.33V93.6555H126.152V94.3822H123.125V101.689Z" fill="#0F0F0F"/>
<path d="M138.829 101.689H138.021L136.608 98.8228H132.45L131.037 101.689H130.23L134.146 93.6152H134.872L138.829 101.689ZM134.549 94.4226L132.854 98.0558H136.245L134.549 94.4226Z" fill="#0F0F0F"/>
<path d="M147.831 97.1273C149.607 97.1677 150.616 98.2173 150.616 99.3879C150.616 100.518 149.647 101.85 146.781 101.85C144.359 101.85 143.35 100.76 142.785 100.195L143.309 99.6705C143.875 100.115 144.601 101.124 146.781 101.124C148.436 101.124 149.89 100.599 149.89 99.3879C149.89 98.6613 149.203 97.8943 147.79 97.8539L145.933 97.8136C144.763 97.8136 143.35 97.4099 143.35 95.8355C143.35 94.7859 144.319 93.4537 146.781 93.4537C148.719 93.4537 149.688 94.3419 150.091 94.5841L149.647 95.1492C148.921 94.7052 148.194 94.1804 146.822 94.1804C144.803 94.1804 144.036 95.1492 144.036 95.8355C144.036 96.8043 144.924 97.0869 145.893 97.0869L147.831 97.1273Z" fill="#0F0F0F"/>
</g>
<defs>
<clipPath id="clip0">
<rect width="162" height="101.85" fill="white"/>
</clipPath>
</defs>
</svg>
