<svg width="42" height="42" viewBox="0 0 42 42" fill="none" xmlns="http://www.w3.org/2000/svg">
<ellipse cx="21" cy="20.7774" rx="21" ry="20.7774" fill="#C4C4C4"/>
<path d="M7.34985 14.0354L11.0896 25.1111L14.3806 19.3565L7.34985 14.0354Z" fill="white"/>
<path d="M10.8647 24.4016L11.9493 27.6337C14.9037 27.476 17.8955 27.3972 20.9247 27.3972C24.1035 27.3972 27.2075 27.476 30.2741 27.6337L31.2465 24.4016C27.8807 24.1651 24.4401 24.0469 20.9621 24.0469C17.4841 24.0863 14.1183 24.2045 10.8647 24.4016Z" fill="white"/>
<path d="M34.6499 14.0747L30.9101 25.3082L27.6191 19.3564L34.6499 14.0747Z" fill="white"/>
<path d="M23.0191 16.2427L20.9622 18.4499L18.8679 16.2427L20.9622 14.0354L23.0191 16.2427Z" fill="white"/>
<path d="M18.0356 17.1737L15.9478 19.3768L18.038 21.5773L20.1259 19.3743L18.0356 17.1737Z" fill="white"/>
<path d="M23.9729 17.153L21.885 19.356L23.9753 21.5566L26.0631 19.3535L23.9729 17.153Z" fill="white"/>
</svg>
