<svg width="77" height="49" viewBox="0 0 77 49" fill="none" xmlns="http://www.w3.org/2000/svg">
<path d="M4.83529 30.5082C4.5091 30.7385 4.06778 30.8344 3.83753 30.8344L5.37254 33.3864H4.73935L3.20434 30.8344H0.575629V33.3864H0V27.3423H3.5689C4.18291 27.3423 4.35559 27.3998 4.72016 27.5917C5.21904 27.8604 5.50685 28.5703 5.50685 29.0884C5.50685 29.5872 5.23823 30.2012 4.83529 30.5082ZM4.45153 28.0906C4.24047 27.9563 4.0294 27.8987 3.31946 27.8987H0.575629V30.278H3.31946C3.95265 30.278 4.24047 30.2396 4.48991 30.0669C4.79691 29.8367 4.95041 29.4337 4.95041 29.0692C4.95041 28.6662 4.79691 28.3017 4.45153 28.0906Z" fill="white"/>
<path d="M11.359 33.3864V27.3423H16.3478V27.9179H11.8963V29.9902H14.3331V30.5466H11.8963V32.83H16.5397V33.3864H11.359Z" fill="white"/>
<path d="M24.6369 33.521C24.0996 33.521 23.5816 33.4443 23.1019 33.2524C22.4879 33.0413 22.1425 32.7343 21.682 32.2738L22.0658 31.8709C22.8525 32.6576 23.6008 32.9454 24.6945 32.9454C25.5003 32.9454 27.0162 32.7343 27.0162 31.6406C27.0162 30.8539 26.2103 30.5469 25.6538 30.4894C25.3277 30.451 24.5218 30.4702 24.0613 30.451C23.1403 30.4318 22.1233 30.0673 22.1233 28.9927C22.1233 28.0909 22.8908 27.5537 23.6775 27.3234C24.0421 27.2083 24.445 27.1699 24.8288 27.1699C25.769 27.1699 26.4981 27.4769 27.2464 28.0334L26.901 28.4555C26.1719 27.995 25.6347 27.7264 24.7328 27.7264C24.4642 27.7264 24.2148 27.7455 23.9461 27.8031C23.3705 27.9374 22.6798 28.302 22.6798 28.9736C22.6798 29.7219 23.4665 29.8754 24.0613 29.8946C24.541 29.9138 25.2701 29.9138 25.7114 29.9521C26.7284 30.0289 27.5918 30.6045 27.5918 31.6406C27.5726 33.1373 25.8073 33.521 24.6369 33.521Z" fill="white"/>
<path d="M35.9961 33.5207C34.1924 33.5207 32.715 32.1968 32.715 30.3548C32.715 28.5511 34.1732 27.208 35.9577 27.208C37.7613 27.208 39.2388 28.532 39.2388 30.3548C39.2388 32.1968 37.7805 33.5207 35.9961 33.5207ZM35.9961 27.7644C34.5378 27.7644 33.2714 28.839 33.2714 30.3356C33.2714 31.8706 34.461 32.9643 35.9769 32.9643C37.4543 32.9643 38.6823 31.909 38.6823 30.3932C38.6823 28.8773 37.4735 27.7644 35.9961 27.7644Z" fill="white"/>
<path d="M49.7535 30.5082C49.4273 30.7385 48.986 30.8344 48.7557 30.8344L50.2907 33.3864H49.6575L48.1417 30.8344H45.513V33.3864H44.9374V27.3423H48.5063C49.1203 27.3423 49.293 27.3998 49.6575 27.5917C50.1564 27.8604 50.4442 28.5703 50.4442 29.0884C50.425 29.5872 50.1756 30.2012 49.7535 30.5082ZM49.3697 28.0906C49.1587 27.9563 48.9476 27.8987 48.2377 27.8987H45.4938V30.278H48.2377C48.8708 30.278 49.1587 30.2396 49.4081 30.0669C49.7151 29.8367 49.8686 29.4337 49.8686 29.0692C49.8686 28.6662 49.7151 28.3017 49.3697 28.0906Z" fill="white"/>
<path d="M58.5798 27.8795V33.3864H58.0234V27.8795H55.7017V27.3423H60.8631V27.8795H58.5798Z" fill="white"/>
<path d="M68.826 33.521C68.2887 33.521 67.7899 33.4443 67.291 33.2524C66.677 33.0413 66.3316 32.7343 65.8711 32.2738L66.2548 31.8709C67.0415 32.6576 67.7899 32.9454 68.8836 32.9454C69.6894 32.9454 71.2053 32.7343 71.2053 31.6406C71.2053 30.8539 70.3994 30.5469 69.8429 30.4894C69.5167 30.451 68.7109 30.4702 68.2504 30.451C67.3294 30.4318 66.3124 30.0673 66.3124 28.9927C66.3124 28.0909 67.0799 27.5537 67.8666 27.3234C68.2312 27.2083 68.6341 27.1699 69.0179 27.1699C69.9581 27.1699 70.6872 27.4769 71.4163 28.0334L71.0709 28.4555C70.3418 27.995 69.8046 27.7264 68.9027 27.7264C68.6341 27.7264 68.3847 27.7455 68.1161 27.8031C67.5404 27.9374 66.8497 28.302 66.8497 28.9736C66.8497 29.7219 67.6364 29.8754 68.2312 29.8946C68.7109 29.9138 69.4208 29.9138 69.8813 29.9521C70.8983 30.0289 71.7617 30.6045 71.7617 31.6406C71.7425 33.1373 69.9773 33.521 68.826 33.521Z" fill="white"/>
<path d="M30.2397 0L31.7748 4.33641L33.1563 2.07227L30.2397 0Z" fill="white"/>
<path d="M31.6788 4.06791L32.1201 5.33429C33.3481 5.27673 34.5761 5.23835 35.8425 5.23835C37.1473 5.23835 38.4328 5.27673 39.6992 5.33429L40.1022 4.06791C38.7207 3.97197 37.3008 3.93359 35.8425 3.93359C34.4226 3.93359 33.0411 3.99116 31.6788 4.06791ZM13.6808 8.86482C18.3242 7.08037 24.3683 5.7948 31.1032 5.39185L30.6618 4.14466C23.4857 4.72029 17.4032 6.46636 13.6808 8.86482ZM41.0999 4.14466L40.7162 5.39185C47.4318 5.81398 53.4376 7.08037 58.0618 8.86482C54.397 6.46636 48.3145 4.72029 41.0999 4.14466Z" fill="white"/>
<path d="M41.522 0.019043L39.987 4.41301L38.6055 2.09131L41.522 0.019043Z" fill="white"/>
<path d="M36.7251 0.863444L35.8616 1.72689L34.9982 0.863444L35.8616 0L36.7251 0.863444Z" fill="white"/>
<path d="M35.5163 2.09147L34.6529 2.95492L33.7894 2.09147L34.6529 1.22803L35.5163 2.09147Z" fill="white"/>
<path d="M37.9531 2.09147L37.1088 2.95492L36.2454 2.09147L37.1088 1.22803L37.9531 2.09147Z" fill="white"/>
<path d="M6.12084 18.8613H1.63094V23.2552H0.115112V12.9131H6.12084C7.94367 12.9131 9.1333 14.0068 9.1333 15.868C9.1333 17.6908 7.94367 18.8613 6.12084 18.8613ZM6.12084 14.4097H1.63094V17.3262H6.12084C7.09941 17.3262 7.63667 16.8466 7.63667 15.8488C7.63667 14.8318 7.1186 14.4097 6.12084 14.4097Z" fill="white"/>
<path d="M20.4156 23.2363L18.9382 19.8209H14.2947L12.7597 23.2363H11.1288L15.8298 12.875H17.4991L22.1233 23.2363H20.4156ZM16.6164 14.717L14.9855 18.3243H18.2666L16.6164 14.717Z" fill="white"/>
<path d="M25.4044 23.2363V12.8174H26.9202V21.7396H33.2138V23.2363H25.4044Z" fill="white"/>
<path d="M45.4746 23.2363L43.9971 19.8209H39.3537L37.8187 23.2363H36.1877L40.8887 12.875H42.558L47.1823 23.2363H45.4746ZM41.6754 14.717L40.0445 18.3243H43.3255L41.6754 14.717Z" fill="white"/>
<path d="M55.0492 23.4855C51.8641 23.4855 49.2354 21.3557 49.2354 18.0363C49.2354 14.9087 51.653 12.6445 54.7422 12.6445C56.661 12.6445 58.3687 13.4504 59.731 14.7744L58.6181 15.7337C57.5052 14.8127 56.3156 14.1604 54.8381 14.1604C52.574 14.1604 50.7128 15.7337 50.7128 18.0746C50.7128 20.5882 52.8234 21.9697 55.1451 21.9697C56.7761 21.9697 57.7739 21.4325 58.9059 20.3004L59.9037 21.3749C58.6373 22.8524 56.9488 23.4855 55.0492 23.4855Z" fill="white"/>
<path d="M62.8586 23.2362V12.894H71.3588V14.4099H64.3553V17.1153H67.8858V18.612H64.3553V21.7395H71.6274V23.2362H62.8586Z" fill="white"/>
<path d="M75.3497 27.0161C76.2515 27.0161 76.9806 27.7452 76.9806 28.6471C76.9806 29.5489 76.2515 30.278 75.3497 30.278C74.4479 30.278 73.7188 29.5489 73.7188 28.6471C73.7188 27.7452 74.4479 27.0161 75.3497 27.0161ZM75.3497 30.0478C76.1172 30.0478 76.7504 29.4146 76.7504 28.6471C76.7504 27.8796 76.1172 27.2464 75.3497 27.2464C74.5822 27.2464 73.949 27.8796 73.949 28.6471C73.949 29.4338 74.5822 30.0478 75.3497 30.0478ZM75.0043 29.5873H74.7741V27.7069H75.5032C75.9253 27.7069 76.098 27.8987 76.098 28.2249C76.098 28.5703 75.887 28.7238 75.6183 28.7622L76.1748 29.5873H75.9061L75.3497 28.7622H75.0043V29.5873ZM75.0043 28.5511H75.3113C75.5799 28.5511 75.8486 28.5319 75.8486 28.2249C75.8486 27.9755 75.6375 27.9179 75.4264 27.9179H75.0043V28.5511Z" fill="white"/>
<path d="M4.04843 47.6239C3.85656 47.7966 3.24255 48.3914 2.18723 48.3914C1.28541 48.3914 0.134155 47.7582 0.134155 46.3959C0.134155 45.0911 1.22785 44.4004 2.22561 44.4004C3.3193 44.4004 3.79899 44.9185 4.02925 45.1487L3.79899 45.3982C3.64549 45.2446 3.20418 44.7458 2.2448 44.7458C1.3046 44.7458 0.49872 45.3598 0.49872 46.3959C0.49872 47.2977 1.22785 48.046 2.20642 48.046C3.10824 48.046 3.64549 47.528 3.83737 47.3553L4.04843 47.6239Z" fill="white"/>
<path d="M9.38272 48.3336H6.56213V44.4961H6.90751V47.9691H9.4019V48.3336H9.38272Z" fill="white"/>
<path d="M15.0815 48.3336H11.8196V44.4961H14.9664V44.8415H12.165V46.1654H13.6808V46.5108H12.165V47.9691H15.0815V48.3336Z" fill="white"/>
<path d="M19.3604 48.3336H19.015L17.173 44.4961H17.5567L19.1877 47.8923L20.8186 44.4961H21.2024L19.3604 48.3336Z" fill="white"/>
<path d="M26.7283 48.3336H23.4664V44.4961H26.6132V44.8415H23.8118V46.1654H25.3276V46.5108H23.8118V47.9691H26.7283V48.3336Z" fill="white"/>
<path d="M32.6956 48.3336H32.2927L31.3333 46.7027H29.664V48.3336H29.3186V44.4961H31.6595C32.5229 44.4961 32.7724 45.1869 32.7724 45.5706C32.7724 46.4724 32.0624 46.6643 31.7171 46.6835L32.6956 48.3336ZM31.3525 46.3381C31.8322 46.3381 32.427 46.2805 32.427 45.5706C32.427 44.9566 31.9089 44.8415 31.6595 44.8415H29.664V46.3381H31.3525Z" fill="white"/>
<path d="M40.5243 48.3336H40.1789L38.3369 44.4961H38.7207L40.3516 47.8923L41.9826 44.4961H42.3663L40.5243 48.3336Z" fill="white"/>
<path d="M47.8732 48.3336H44.6113V44.4961H47.7581V44.8415H44.9567V46.1654H46.4725V46.5108H44.9567V47.9691H47.8732V48.3336Z" fill="white"/>
<path d="M54.0707 48.3338H53.7254L51.0391 45.0143V48.3146H50.6937V44.4771H51.0391L53.7062 47.7965H53.7254V44.4771H54.0707V48.3338Z" fill="white"/>
<path d="M58.5223 48.334H58.1769V44.861H56.7186V44.5156H59.9613V44.861H58.5223V48.334Z" fill="white"/>
<path d="M65.9863 48.3336H65.6025L64.9309 46.9713H62.9546L62.283 48.3336H61.8993L63.7605 44.4961H64.1059L65.9863 48.3336ZM63.9524 44.8798L63.1465 46.6067H64.7582L63.9524 44.8798Z" fill="white"/>
<path d="M70.2654 46.1655C71.1097 46.1847 71.5893 46.6836 71.5893 47.24C71.5893 47.7773 71.1288 48.4105 69.7665 48.4105C68.6153 48.4105 68.1356 47.8924 67.8669 47.6238L68.1164 47.3743C68.385 47.5854 68.7304 48.0651 69.7665 48.0651C70.5532 48.0651 71.244 47.8156 71.244 47.24C71.244 46.8946 70.9178 46.5301 70.2462 46.5109L69.3636 46.4917C68.8071 46.4917 68.1356 46.2998 68.1356 45.5515C68.1356 45.0526 68.5961 44.4194 69.7665 44.4194C70.6875 44.4194 71.148 44.8416 71.3399 44.9567L71.1288 45.2253C70.7835 45.0142 70.4381 44.7648 69.7857 44.7648C68.8263 44.7648 68.4618 45.2253 68.4618 45.5515C68.4618 46.012 68.8839 46.1463 69.3444 46.1463L70.2654 46.1655Z" fill="white"/>
</svg>
