<?xml version="1.0" encoding="utf-8"?>
<!-- Generator: Adobe Illustrator 25.2.0, SVG Export Plug-In . SVG Version: 6.00 Build 0)  -->
<svg version="1.1" xmlns="http://www.w3.org/2000/svg" xmlns:xlink="http://www.w3.org/1999/xlink" x="0px" y="0px"
	 viewBox="0 0 396.9 283.5" style="enable-background:new 0 0 396.9 283.5;" xml:space="preserve">
<style type="text/css">
	.st0{fill:#00AA9D;}
	.st1{display:none;}
	.st2{display:inline;}
	.st3{fill:#FFFFFF;}
</style>
<g id="Capa_1">
	<g>
		<path class="st0" d="M106.1,179.4c-0.9,0.6-2.1,0.9-2.7,0.9l4.2,7h-1.8l-4.2-7h-7.2v7h-1.6v-16.6h9.8c1.7,0,2.2,0.1,3.1,0.7
			c1.4,0.8,2.2,2.7,2.2,4.1C107.9,176.9,107.2,178.6,106.1,179.4 M105,172.8c-0.6-0.4-1.2-0.5-3.1-0.5h-7.5v6.5h7.5
			c1.8,0,2.5-0.1,3.2-0.6c0.8-0.6,1.3-1.7,1.3-2.8C106.4,174.4,106,173.4,105,172.8"/>
		<polygon class="st0" points="124,187.3 124,170.8 137.7,170.8 137.7,172.3 125.5,172.3 125.5,178 132.1,178 132.1,179.5 
			125.5,179.5 125.5,185.8 138.2,185.8 138.2,187.3 		"/>
		<path class="st0" d="M160.4,187.7c-1.5,0-2.9-0.2-4.2-0.7c-1.7-0.6-2.7-1.4-3.9-2.7l1-1.1c2.1,2.2,4.2,3,7.2,3
			c2.2,0,6.4-0.6,6.4-3.6c0-2.2-2.2-3-3.7-3.2c-0.9-0.1-3.1-0.1-4.4-0.1c-2.5,0-5.3-1-5.3-4c0-2.5,2.1-4,4.3-4.6
			c1-0.3,2.1-0.4,3.1-0.4c2.6,0,4.6,0.8,6.6,2.4l-0.9,1.1c-2-1.3-3.5-2-5.9-2c-0.7,0-1.4,0-2.1,0.2c-1.6,0.4-3.5,1.4-3.5,3.2
			c0,2,2.2,2.5,3.8,2.5c1.3,0,3.3,0,4.5,0.1c2.8,0.2,5.1,1.8,5.1,4.6C168.5,186.7,163.6,187.7,160.4,187.7"/>
		<path class="st0" d="M191.6,187.7c-5,0-9-3.6-9-8.7c0-4.9,4-8.6,8.9-8.6c4.9,0,9,3.6,9,8.7C200.4,184,196.5,187.7,191.6,187.7
			 M191.5,171.9c-4,0-7.5,2.9-7.5,7.1c0,4.2,3.3,7.2,7.4,7.2c4.1,0,7.4-2.9,7.4-7.1C198.9,175,195.6,171.9,191.5,171.9"/>
		<path class="st0" d="M229.3,179.4c-0.9,0.6-2.1,0.9-2.7,0.9l4.2,7H229l-4.2-7h-7.2v7h-1.6v-16.6h9.8c1.7,0,2.2,0.1,3.1,0.7
			c1.4,0.8,2.2,2.7,2.2,4.1C231.2,176.9,230.5,178.6,229.3,179.4 M228.3,172.8c-0.6-0.4-1.2-0.5-3.1-0.5h-7.5v6.5h7.5
			c1.8,0,2.5-0.1,3.2-0.6c0.8-0.6,1.3-1.7,1.3-2.8C229.6,174.4,229.2,173.4,228.3,172.8"/>
		<polygon class="st0" points="253.5,172.3 253.5,187.3 252,187.3 252,172.3 245.6,172.3 245.6,170.7 259.8,170.7 259.8,172.3 		"/>
		<path class="st0" d="M281.6,187.7c-1.5,0-2.9-0.2-4.2-0.7c-1.7-0.6-2.6-1.4-3.9-2.7l1-1.1c2.1,2.2,4.2,3,7.2,3
			c2.2,0,6.4-0.6,6.4-3.6c0-2.2-2.2-3-3.7-3.2c-0.9-0.1-3.1-0.1-4.4-0.1c-2.5,0-5.3-1-5.3-4c0-2.5,2.1-4,4.3-4.6
			c1-0.3,2.1-0.4,3.1-0.4c2.6,0,4.6,0.8,6.6,2.4l-0.9,1.1c-2-1.3-3.5-2-5.9-2c-0.7,0-1.4,0-2.1,0.2c-1.6,0.4-3.5,1.4-3.5,3.2
			c0,2,2.2,2.5,3.8,2.5c1.3,0,3.3,0,4.5,0.1c2.8,0.2,5.1,1.8,5.1,4.6C289.6,186.7,284.8,187.7,281.6,187.7"/>
		<polygon class="st0" points="175.8,95.7 180,107.6 183.8,101.5 		"/>
		<path class="st0" d="M179.7,106.9l1.2,3.5c3.3-0.2,6.7-0.2,10.2-0.2c3.6,0,7.1,0.1,10.6,0.3l1.1-3.5c-3.8-0.2-7.7-0.4-11.7-0.4
			C187.3,106.5,183.5,106.7,179.7,106.9 M130.4,120.1c12.8-4.9,29.3-8.4,47.8-9.6l-1.2-3.4C157.3,108.7,140.5,113.5,130.4,120.1
			 M205.6,107.1l-1.1,3.4c18.4,1.2,34.9,4.7,47.6,9.5C242.1,113.5,225.3,108.7,205.6,107.1"/>
		<polygon class="st0" points="206.7,95.8 202.5,107.9 198.7,101.5 		"/>
		<polygon class="st0" points="193.5,98.1 191.2,100.5 188.8,98.1 191.2,95.8 		"/>
		
			<rect x="186.2" y="99.8" transform="matrix(0.7068 -0.7074 0.7074 0.7068 -16.695 162.6667)" class="st0" width="3.3" height="3.3"/>
		
			<rect x="192.9" y="99.8" transform="matrix(0.7068 -0.7074 0.7074 0.7068 -14.7269 167.4151)" class="st0" width="3.3" height="3.3"/>
		<path class="st0" d="M109.6,147.5H97.3v12h-4.1v-28.4h16.5c5,0,8.3,3,8.3,8.1C117.9,144.3,114.6,147.5,109.6,147.5 M109.6,135.3
			H97.3v8h12.3c2.7,0,4.2-1.3,4.2-4C113.8,136.4,112.3,135.3,109.6,135.3"/>
		<path class="st0" d="M148.8,159.5l-4.1-9.4H132l-4.2,9.4h-4.5l12.9-28.4h4.6l12.7,28.4H148.8z M138.4,136.1l-4.5,9.9h9
			L138.4,136.1z"/>
		<polygon class="st0" points="162.5,159.5 162.5,130.9 166.7,130.9 166.7,155.4 183.9,155.4 183.9,159.5 		"/>
		<path class="st0" d="M217.6,159.5l-4.1-9.4h-12.7l-4.2,9.4H192l12.9-28.4h4.6l12.7,28.4H217.6z M207.1,136.1l-4.5,9.9h9
			L207.1,136.1z"/>
		<path class="st0" d="M243.8,160.2c-8.7,0-16-5.9-16-14.9c0-8.6,6.7-14.8,15.1-14.8c5.3,0,10,2.2,13.7,5.8l-3.1,2.6
			c-3-2.5-6.3-4.3-10.4-4.3c-6.2,0-11.3,4.3-11.3,10.7c0,6.9,5.8,10.7,12.2,10.7c4.4,0,7.2-1.5,10.3-4.6l2.7,3
			C253.7,158.4,249,160.2,243.8,160.2"/>
		<polygon class="st0" points="265.2,159.5 265.2,131.1 288.6,131.1 288.6,135.3 269.4,135.3 269.4,142.7 279,142.7 279,146.8 
			269.4,146.8 269.4,155.4 289.3,155.4 289.3,159.5 		"/>
		<path class="st0" d="M299.5,169.8c2.5,0,4.5,2,4.5,4.5c0,2.5-2,4.5-4.5,4.5c-2.5,0-4.5-2-4.5-4.5
			C295,171.9,297.1,169.8,299.5,169.8 M299.5,178.2c2.1,0,3.8-1.7,3.8-3.8c0-2.1-1.7-3.8-3.8-3.8c-2.1,0-3.8,1.7-3.8,3.8
			C295.7,176.5,297.4,178.2,299.5,178.2 M298.6,176.9h-0.7v-5.2h2c1.2,0,1.6,0.5,1.6,1.4c0,1-0.6,1.4-1.3,1.5l1.5,2.3H301l-1.5-2.3
			h-0.9V176.9z M298.6,174.1h0.8c0.7,0,1.5,0,1.5-0.9c0-0.7-0.6-0.9-1.2-0.9h-1.2V174.1z"/>
	</g>
</g>
<g id="Capa_2" class="st1">
	<g class="st2">
		<path class="st3" d="M48,203.1c-1.5,1-3.4,1.4-4.4,1.5l6.8,11.4h-2.9l-6.8-11.4H29V216h-2.5v-27h15.9c2.7,0,3.5,0.2,5.1,1.1
			c2.2,1.2,3.5,4.4,3.5,6.7C51,199,49.9,201.8,48,203.1 M46.3,192.3c-0.9-0.6-1.9-0.8-5-0.8H29v10.7h12.3c2.9,0,4.1-0.2,5.2-1
			c1.4-1,2.1-2.8,2.1-4.5C48.5,194.9,47.8,193.3,46.3,192.3"/>
		<polygon class="st3" points="77.2,216 77.2,189 99.5,189 99.5,191.5 79.6,191.5 79.6,200.8 90.4,200.8 90.4,203.3 79.6,203.3 
			79.6,213.5 100.3,213.5 100.3,216 		"/>
		<path class="st3" d="M136.5,216.6c-2.4,0-4.7-0.4-6.9-1.2c-2.8-1-4.3-2.3-6.4-4.4l1.7-1.8c3.5,3.5,6.8,4.8,11.8,4.8
			c3.6,0,10.4-0.9,10.4-5.8c0-3.5-3.6-4.9-6.1-5.1c-1.5-0.1-5.1-0.1-7.1-0.1c-4.1-0.1-8.7-1.7-8.7-6.5c0-4.1,3.4-6.5,7-7.4
			c1.7-0.5,3.4-0.7,5.1-0.7c4.2,0,7.4,1.4,10.8,3.9l-1.5,1.8c-3.3-2.1-5.7-3.3-9.7-3.3c-1.2,0-2.3,0.1-3.5,0.4
			c-2.5,0.6-5.7,2.3-5.7,5.3c0,3.3,3.5,4,6.2,4.1c2.1,0.1,5.4,0.1,7.4,0.2c4.5,0.4,8.4,2.9,8.4,7.5
			C149.6,214.9,141.7,216.6,136.5,216.6"/>
		<path class="st3" d="M187.2,216.6c-8.1,0-14.6-5.9-14.6-14.1c0-8.1,6.6-14,14.5-14c8,0,14.6,5.9,14.6,14.1
			C201.7,210.6,195.2,216.6,187.2,216.6 M187.2,190.9c-6.5,0-12.2,4.8-12.2,11.5c0,6.9,5.3,11.7,12.1,11.7c6.6,0,12.1-4.7,12.1-11.5
			C199.2,195.9,193.9,190.9,187.2,190.9"/>
		<path class="st3" d="M248.7,203.1c-1.5,1-3.4,1.4-4.4,1.5l6.8,11.4h-2.9l-6.8-11.4h-11.8V216h-2.5v-27h15.9c2.7,0,3.5,0.2,5.1,1.1
			c2.2,1.2,3.5,4.4,3.5,6.7C251.7,199,250.6,201.8,248.7,203.1 M247,192.3c-0.9-0.6-1.9-0.8-5-0.8h-12.3v10.7H242
			c2.9,0,4.1-0.2,5.2-1c1.4-1,2.1-2.8,2.1-4.5C249.3,194.9,248.6,193.3,247,192.3"/>
		<polygon class="st3" points="288.1,191.4 288.1,216 285.7,216 285.7,191.4 275.3,191.4 275.3,189 298.4,189 298.4,191.4 		"/>
		<path class="st3" d="M333.9,216.6c-2.4,0-4.7-0.4-6.9-1.2c-2.7-1-4.3-2.3-6.4-4.4l1.7-1.8c3.5,3.5,6.8,4.8,11.8,4.8
			c3.6,0,10.4-0.9,10.4-5.8c0-3.5-3.6-4.9-6.1-5.1c-1.5-0.1-5.1-0.1-7.1-0.1c-4.1-0.1-8.7-1.7-8.7-6.5c0-4.1,3.4-6.5,7-7.4
			c1.7-0.5,3.4-0.7,5.1-0.7c4.2,0,7.4,1.4,10.8,3.9l-1.5,1.8c-3.3-2.1-5.7-3.3-9.7-3.3c-1.2,0-2.3,0.1-3.5,0.4
			c-2.5,0.6-5.7,2.3-5.7,5.3c0,3.3,3.5,4,6.2,4.1c2.1,0.1,5.3,0.1,7.4,0.2c4.5,0.4,8.4,2.9,8.4,7.5
			C347,214.9,339.1,216.6,333.9,216.6"/>
		<polygon class="st3" points="161.5,66.8 168.4,86.2 174.5,76.1 		"/>
		<path class="st3" d="M168,85l2,5.7c5.4-0.3,11-0.4,16.6-0.4c5.8,0,11.6,0.1,17.3,0.4l1.8-5.7c-6.2-0.4-12.5-0.6-19-0.6
			C180.3,84.4,174.1,84.6,168,85 M87.6,106.5c20.8-8,47.8-13.7,77.9-15.6l-2-5.6C131.4,87.9,104.1,95.7,87.6,106.5 M210,85.4
			l-1.7,5.6c30,1.9,56.8,7.6,77.5,15.5C269.5,95.7,242.3,87.9,210,85.4"/>
		<polygon class="st3" points="212,66.9 205.1,86.6 198.9,76.2 		"/>
		<polygon class="st3" points="190.5,70.7 186.7,74.5 182.8,70.7 186.7,66.9 		"/>
		<polygon class="st3" points="185.1,76.2 181.3,80 177.4,76.2 181.3,72.3 		"/>
		<polygon class="st3" points="196,76.2 192.2,80 188.4,76.2 192.2,72.3 		"/>
		<path class="st3" d="M53.8,151.1H33.7v19.6H27v-46.2h26.8c8.2,0,13.5,4.9,13.5,13.2C67.3,145.9,61.9,151.1,53.8,151.1 M53.8,131.3
			H33.7v13h20.1c4.3,0,6.8-2.1,6.8-6.6C60.6,133.1,58.2,131.3,53.8,131.3"/>
		<path class="st3" d="M117.7,170.7l-6.6-15.2H90.3l-6.9,15.2h-7.3l21-46.3h7.4l20.7,46.3H117.7z M100.7,132.6l-7.3,16.1H108
			L100.7,132.6z"/>
		<polygon class="st3" points="140,170.7 140,124.1 146.7,124.1 146.7,163.9 174.8,163.9 174.8,170.7 		"/>
		<path class="st3" d="M229.6,170.7l-6.6-15.2h-20.7l-6.9,15.2H188l21-46.3h7.4l20.7,46.3H229.6z M212.6,132.6l-7.3,16.1h14.6
			L212.6,132.6z"/>
		<path class="st3" d="M272.4,171.8c-14.2,0-26-9.5-26-24.3c0-14,10.8-24.1,24.6-24.1c8.6,0,16.2,3.6,22.3,9.5l-5,4.3
			c-5-4.2-10.3-7-16.9-7c-10.2,0-18.4,7-18.4,17.5c0,11.2,9.4,17.4,19.8,17.4c7.2,0,11.8-2.4,16.8-7.4l4.5,4.8
			C288.5,169,280.8,171.8,272.4,171.8"/>
		<polygon class="st3" points="307.3,170.7 307.3,124.4 345.3,124.4 345.3,131.3 314,131.3 314,143.3 329.7,143.3 329.7,150 
			314,150 314,163.9 346.4,163.9 346.4,170.7 		"/>
		<path class="st3" d="M363.1,187.5c4,0,7.3,3.3,7.3,7.3c0,4-3.3,7.3-7.3,7.3c-4,0-7.3-3.3-7.3-7.3
			C355.8,190.8,359.1,187.5,363.1,187.5 M363.1,201.1c3.5,0,6.3-2.8,6.3-6.3c0-3.5-2.8-6.3-6.3-6.3c-3.5,0-6.3,2.8-6.3,6.3
			C356.8,198.3,359.6,201.1,363.1,201.1 M361.5,199h-1.1v-8.4h3.2c1.9,0,2.7,0.8,2.7,2.3c0,1.6-1,2.2-2.1,2.4l2.5,3.7h-1.2l-2.5-3.7
			h-1.5V199z M361.5,194.4h1.4c1.2,0,2.4-0.1,2.4-1.5c0-1.1-1-1.4-1.9-1.4h-1.9V194.4z"/>
	</g>
</g>
</svg>
