<svg width="77" height="49" viewBox="0 0 77 49" fill="none" xmlns="http://www.w3.org/2000/svg">
<path d="M4.83529 30.5084C4.5091 30.7386 4.06778 30.8346 3.83753 30.8346L5.37254 33.3865H4.73935L3.20434 30.8346H0.575629V33.3865H0V27.3424H3.5689C4.18291 27.3424 4.35559 27.4 4.72016 27.5918C5.21904 27.8605 5.50685 28.5704 5.50685 29.0885C5.50685 29.5874 5.23823 30.2014 4.83529 30.5084ZM4.45153 28.0907C4.24047 27.9564 4.0294 27.8988 3.31946 27.8988H0.575629V30.2781H3.31946C3.95265 30.2781 4.24047 30.2397 4.48991 30.0671C4.79691 29.8368 4.95041 29.4339 4.95041 29.0693C4.95041 28.6664 4.79691 28.3018 4.45153 28.0907Z" fill="white"/>
<path d="M11.3589 33.3865V27.3424H16.3477V27.918H11.8961V29.9903H14.333V30.5467H11.8961V32.8301H16.5395V33.3865H11.3589Z" fill="white"/>
<path d="M24.637 33.5208C24.0998 33.5208 23.5817 33.444 23.102 33.2522C22.488 33.0411 22.1426 32.7341 21.6821 32.2736L22.0659 31.8706C22.8526 32.6573 23.6009 32.9452 24.6946 32.9452C25.5005 32.9452 27.0163 32.7341 27.0163 31.6404C27.0163 30.8537 26.2104 30.5467 25.654 30.4891C25.3278 30.4508 24.5219 30.47 24.0614 30.4508C23.1404 30.4316 22.1234 30.067 22.1234 28.9925C22.1234 28.0907 22.891 27.5534 23.6776 27.3232C24.0422 27.2081 24.4451 27.1697 24.8289 27.1697C25.7691 27.1697 26.4982 27.4767 27.2465 28.0331L26.9012 28.4552C26.172 27.9947 25.6348 27.7261 24.733 27.7261C24.4643 27.7261 24.2149 27.7453 23.9463 27.8029C23.3706 27.9372 22.6799 28.3017 22.6799 28.9733C22.6799 29.7216 23.4666 29.8751 24.0614 29.8943C24.5411 29.9135 25.2702 29.9135 25.7115 29.9519C26.7285 30.0286 27.5919 30.6043 27.5919 31.6404C27.5727 33.137 25.8075 33.5208 24.637 33.5208Z" fill="white"/>
<path d="M35.9959 33.5209C34.1923 33.5209 32.7148 32.1969 32.7148 30.3549C32.7148 28.5513 34.1731 27.2081 35.9576 27.2081C37.7612 27.2081 39.2386 28.5321 39.2386 30.3549C39.2386 32.1969 37.7804 33.5209 35.9959 33.5209ZM35.9959 27.7646C34.5377 27.7646 33.2713 28.8391 33.2713 30.3357C33.2713 31.8707 34.4609 32.9644 35.9767 32.9644C37.4542 32.9644 38.6822 31.9091 38.6822 30.3933C38.6822 28.8775 37.4734 27.7646 35.9959 27.7646Z" fill="white"/>
<path d="M49.7536 30.5084C49.4274 30.7386 48.9861 30.8346 48.7558 30.8346L50.2909 33.3865H49.6577L48.1418 30.8346H45.5131V33.3865H44.9375V27.3424H48.5064C49.1204 27.3424 49.2931 27.4 49.6577 27.5918C50.1565 27.8605 50.4444 28.5704 50.4444 29.0885C50.4252 29.5874 50.1757 30.2014 49.7536 30.5084ZM49.3698 28.0907C49.1588 27.9564 48.9477 27.8988 48.2378 27.8988H45.4939V30.2781H48.2378C48.871 30.2781 49.1588 30.2397 49.4082 30.0671C49.7152 29.8368 49.8687 29.4339 49.8687 29.0693C49.8687 28.6664 49.7152 28.3018 49.3698 28.0907Z" fill="white"/>
<path d="M58.5798 27.8797V33.3865H58.0234V27.8797H55.7017V27.3424H60.8631V27.8797H58.5798Z" fill="white"/>
<path d="M68.826 33.5208C68.2887 33.5208 67.7899 33.444 67.291 33.2522C66.677 33.0411 66.3316 32.7341 65.8711 32.2736L66.2548 31.8706C67.0415 32.6573 67.7899 32.9452 68.8836 32.9452C69.6894 32.9452 71.2053 32.7341 71.2053 31.6404C71.2053 30.8537 70.3994 30.5467 69.8429 30.4891C69.5167 30.4508 68.7109 30.47 68.2504 30.4508C67.3294 30.4316 66.3124 30.067 66.3124 28.9925C66.3124 28.0907 67.0799 27.5534 67.8666 27.3232C68.2312 27.2081 68.6341 27.1697 69.0179 27.1697C69.9581 27.1697 70.6872 27.4767 71.4163 28.0331L71.0709 28.4552C70.3418 27.9947 69.8046 27.7261 68.9027 27.7261C68.6341 27.7261 68.3847 27.7453 68.1161 27.8029C67.5404 27.9372 66.8497 28.3017 66.8497 28.9733C66.8497 29.7216 67.6364 29.8751 68.2312 29.8943C68.7109 29.9135 69.4208 29.9135 69.8813 29.9519C70.8983 30.0286 71.7617 30.6043 71.7617 31.6404C71.7425 33.137 69.9773 33.5208 68.826 33.5208Z" fill="white"/>
<path d="M30.2397 0L31.7748 4.33641L33.1563 2.07227L30.2397 0Z" fill="white"/>
<path d="M31.6787 4.06779L32.12 5.33417C33.348 5.27661 34.576 5.23823 35.8424 5.23823C37.1472 5.23823 38.4327 5.27661 39.6991 5.33417L40.102 4.06779C38.7205 3.97185 37.3006 3.93347 35.8424 3.93347C34.4225 3.93347 33.041 3.99103 31.6787 4.06779ZM13.6807 8.8647C18.3241 7.08025 24.3682 5.79467 31.103 5.39173L30.6617 4.14454C23.4855 4.72017 17.4031 6.46624 13.6807 8.8647ZM41.0998 4.14454L40.716 5.39173C47.4317 5.81386 53.4375 7.08025 58.0617 8.8647C54.3968 6.46624 48.3144 4.72017 41.0998 4.14454Z" fill="white"/>
<path d="M41.522 0.019165L39.987 4.41314L38.6055 2.09143L41.522 0.019165Z" fill="white"/>
<path d="M36.7249 0.863444L35.8615 1.72689L34.998 0.863444L35.8615 0L36.7249 0.863444Z" fill="white"/>
<path d="M35.5164 2.09135L34.653 2.95479L33.7896 2.09135L34.653 1.22791L35.5164 2.09135Z" fill="white"/>
<path d="M37.9528 2.09135L37.1086 2.95479L36.2451 2.09135L37.1086 1.22791L37.9528 2.09135Z" fill="white"/>
<path d="M6.12097 18.8615H1.63106V23.2555H0.115234V12.9133H6.12097C7.94379 12.9133 9.13343 14.007 9.13343 15.8682C9.13343 17.6911 7.94379 18.8615 6.12097 18.8615ZM6.12097 14.41H1.63106V17.3265H6.12097C7.09954 17.3265 7.63679 16.8468 7.63679 15.849C7.63679 14.8321 7.11872 14.41 6.12097 14.41Z" fill="white"/>
<path d="M20.4157 23.2362L18.9383 19.8208H14.2949L12.7599 23.2362H11.1289L15.8299 12.8749H17.4992L22.1234 23.2362H20.4157ZM16.6166 14.7169L14.9856 18.3242H18.2667L16.6166 14.7169Z" fill="white"/>
<path d="M25.4043 23.2361V12.8173H26.9201V21.7395H33.2137V23.2361H25.4043Z" fill="white"/>
<path d="M45.4743 23.2362L43.9969 19.8208H39.3535L37.8184 23.2362H36.1875L40.8885 12.8749H42.5578L47.182 23.2362H45.4743ZM41.6752 14.7169L40.0442 18.3242H43.3253L41.6752 14.7169Z" fill="white"/>
<path d="M55.0492 23.4857C51.8641 23.4857 49.2354 21.3558 49.2354 18.0364C49.2354 14.9088 51.653 12.6447 54.7422 12.6447C56.661 12.6447 58.3687 13.4505 59.731 14.7745L58.6181 15.7339C57.5052 14.8129 56.3156 14.1605 54.8381 14.1605C52.574 14.1605 50.7128 15.7339 50.7128 18.0748C50.7128 20.5883 52.8234 21.9698 55.1451 21.9698C56.7761 21.9698 57.7739 21.4326 58.9059 20.3005L59.9037 21.375C58.6373 22.8525 56.9488 23.4857 55.0492 23.4857Z" fill="white"/>
<path d="M62.8584 23.2363V12.8942H71.3585V14.41H64.355V17.1154H67.8856V18.6121H64.355V21.7397H71.6271V23.2363H62.8584Z" fill="white"/>
<path d="M75.3497 27.0162C76.2515 27.0162 76.9806 27.7454 76.9806 28.6472C76.9806 29.549 76.2515 30.2781 75.3497 30.2781C74.4479 30.2781 73.7188 29.549 73.7188 28.6472C73.7188 27.7454 74.4479 27.0162 75.3497 27.0162ZM75.3497 30.0479C76.1172 30.0479 76.7504 29.4147 76.7504 28.6472C76.7504 27.8797 76.1172 27.2465 75.3497 27.2465C74.5822 27.2465 73.949 27.8797 73.949 28.6472C73.949 29.4339 74.5822 30.0479 75.3497 30.0479ZM75.0043 29.5874H74.7741V27.707H75.5032C75.9253 27.707 76.098 27.8989 76.098 28.2251C76.098 28.5704 75.887 28.7239 75.6183 28.7623L76.1748 29.5874H75.9061L75.3497 28.7623H75.0043V29.5874ZM75.0043 28.5512H75.3113C75.5799 28.5512 75.8486 28.5321 75.8486 28.2251C75.8486 27.9756 75.6375 27.9181 75.4264 27.9181H75.0043V28.5512Z" fill="white"/>
<path d="M4.04856 47.6238C3.85668 47.7965 3.24268 48.3913 2.18736 48.3913C1.28554 48.3913 0.134277 47.7581 0.134277 46.3958C0.134277 45.091 1.22797 44.4003 2.22573 44.4003C3.31943 44.4003 3.79912 44.9183 4.02937 45.1486L3.79912 45.398C3.64562 45.2445 3.2043 44.7456 2.24492 44.7456C1.30472 44.7456 0.498843 45.3597 0.498843 46.3958C0.498843 47.2976 1.22797 48.0459 2.20654 48.0459C3.10836 48.0459 3.64562 47.5279 3.83749 47.3552L4.04856 47.6238Z" fill="white"/>
<path d="M9.38308 48.3336H6.5625V44.4961H6.90788V47.9691H9.40227V48.3336H9.38308Z" fill="white"/>
<path d="M15.0817 48.3336H11.8198V44.4961H14.9666V44.8415H12.1652V46.1654H13.681V46.5108H12.1652V47.9691H15.0817V48.3336Z" fill="white"/>
<path d="M19.3602 48.3336H19.0149L17.1729 44.4961H17.5566L19.1876 47.8923L20.8185 44.4961H21.2023L19.3602 48.3336Z" fill="white"/>
<path d="M26.7287 48.3336H23.4668V44.4961H26.6136V44.8415H23.8122V46.1654H25.328V46.5108H23.8122V47.9691H26.7287V48.3336Z" fill="white"/>
<path d="M32.6959 48.3336H32.2929L31.3335 46.7027H29.6642V48.3336H29.3188V44.4961H31.6597C32.5232 44.4961 32.7726 45.1869 32.7726 45.5706C32.7726 46.4724 32.0627 46.6643 31.7173 46.6835L32.6959 48.3336ZM31.3527 46.3381C31.8324 46.3381 32.4272 46.2805 32.4272 45.5706C32.4272 44.9566 31.9092 44.8415 31.6597 44.8415H29.6642V46.3381H31.3527Z" fill="white"/>
<path d="M40.5243 48.3336H40.1789L38.3369 44.4961H38.7207L40.3516 47.8923L41.9826 44.4961H42.3663L40.5243 48.3336Z" fill="white"/>
<path d="M47.8732 48.3336H44.6113V44.4961H47.7581V44.8415H44.9567V46.1654H46.4725V46.5108H44.9567V47.9691H47.8732V48.3336Z" fill="white"/>
<path d="M54.0709 48.3336H53.7255L51.0392 45.0142V48.3145H50.6938V44.4769H51.0392L53.7063 47.7964H53.7255V44.4769H54.0709V48.3336Z" fill="white"/>
<path d="M58.5224 48.3337H58.177V44.8608H56.7188V44.5154H59.9615V44.8608H58.5224V48.3337Z" fill="white"/>
<path d="M65.9864 48.3336H65.6026L64.9311 46.9713H62.9547L62.2832 48.3336H61.8994L63.7606 44.4961H64.106L65.9864 48.3336ZM63.9525 44.8798L63.1466 46.6067H64.7584L63.9525 44.8798Z" fill="white"/>
<path d="M70.2656 46.1655C71.1099 46.1847 71.5896 46.6836 71.5896 47.24C71.5896 47.7773 71.1291 48.4105 69.7668 48.4105C68.6155 48.4105 68.1358 47.8924 67.8672 47.6238L68.1166 47.3743C68.3853 47.5854 68.7306 48.0651 69.7668 48.0651C70.5535 48.0651 71.2442 47.8156 71.2442 47.24C71.2442 46.8946 70.918 46.5301 70.2465 46.5109L69.3638 46.4917C68.8074 46.4917 68.1358 46.2998 68.1358 45.5515C68.1358 45.0526 68.5963 44.4194 69.7668 44.4194C70.6878 44.4194 71.1483 44.8416 71.3401 44.9567L71.1291 45.2253C70.7837 45.0142 70.4383 44.7648 69.786 44.7648C68.8266 44.7648 68.462 45.2253 68.462 45.5515C68.462 46.012 68.8841 46.1463 69.3446 46.1463L70.2656 46.1655Z" fill="white"/>
</svg>
