<svg width="24" height="11" viewBox="0 0 24 11" fill="none" xmlns="http://www.w3.org/2000/svg">
<path d="M0 0.0517087L2.95793 9.15753L5.64696 4.42951L0 0.0517087Z" fill="#B1C0CA"/>
<path d="M20.3293 10.4071L21.1772 8.1115C18.1487 7.95846 15.0597 7.85644 11.9101 7.85644C8.82101 7.85644 5.79252 7.95846 2.82461 8.1115L3.79372 10.4581C6.45879 10.3561 9.12386 10.3051 11.9101 10.3051C14.7568 10.203 17.5431 10.3051 20.3293 10.4071Z" fill="#B1C0CA"/>
<path d="M18.3531 4.34691L21.0421 9.15753L24.0001 0.0517087L18.3531 4.34691Z" fill="#B1C0CA"/>
<path d="M9.98895 1.70266L11.8368 3.40531L13.6846 1.70266L11.8368 0L9.98895 1.70266Z" fill="#B1C0CA"/>
<path d="M11.1237 4.1195L9.27583 2.41684L7.42801 4.1195L9.27583 5.82216L11.1237 4.1195Z" fill="#B1C0CA"/>
<path d="M16.3686 4.1195L14.5208 2.41684L12.6729 4.1195L14.5208 5.82216L16.3686 4.1195Z" fill="#B1C0CA"/>
</svg>
